<mxfile host="app.diagrams.net" modified="2023-12-22T08:43:22.556Z" agent="Mozilla/5.0 (Macintosh; Intel Mac OS X 10_15_7) AppleWebKit/537.36 (KHTML, like Gecko) Chrome/119.0.0.0 Safari/537.36" etag="8CXidzKSgU1WNSF76RHv" version="22.1.11" type="github">
  <diagram name="第 1 页" id="jjV6L2uMsxcf110h-NHD">
    <mxGraphModel dx="579" dy="487" grid="1" gridSize="10" guides="1" tooltips="1" connect="1" arrows="1" fold="1" page="1" pageScale="1" pageWidth="827" pageHeight="1169" math="0" shadow="0">
      <root>
        <mxCell id="0" />
        <mxCell id="1" parent="0" />
        <mxCell id="vkkQOnORTPZ0EyA8R30g-6" value="" style="rounded=0;whiteSpace=wrap;html=1;" vertex="1" parent="1">
          <mxGeometry x="410" y="40" width="230" height="200" as="geometry" />
        </mxCell>
        <mxCell id="vkkQOnORTPZ0EyA8R30g-24" value="" style="edgeStyle=orthogonalEdgeStyle;rounded=0;orthogonalLoop=1;jettySize=auto;html=1;entryX=0.5;entryY=0;entryDx=0;entryDy=0;shape=flexArrow;width=10.714285714285715;endSize=4.121428571428571;" edge="1" parent="1" source="vkkQOnORTPZ0EyA8R30g-10" target="vkkQOnORTPZ0EyA8R30g-12">
          <mxGeometry relative="1" as="geometry">
            <Array as="points">
              <mxPoint x="78" y="230" />
              <mxPoint x="275" y="230" />
            </Array>
          </mxGeometry>
        </mxCell>
        <mxCell id="vkkQOnORTPZ0EyA8R30g-26" value="" style="rounded=0;orthogonalLoop=1;jettySize=auto;html=1;" edge="1" parent="1" source="vkkQOnORTPZ0EyA8R30g-10" target="vkkQOnORTPZ0EyA8R30g-18">
          <mxGeometry relative="1" as="geometry" />
        </mxCell>
        <mxCell id="vkkQOnORTPZ0EyA8R30g-10" value="/proc" style="shape=note;whiteSpace=wrap;html=1;backgroundOutline=1;darkOpacity=0.05;size=11;" vertex="1" parent="1">
          <mxGeometry x="45" y="250" width="65" height="30" as="geometry" />
        </mxCell>
        <mxCell id="vkkQOnORTPZ0EyA8R30g-11" value="Node" style="text;html=1;strokeColor=none;fillColor=none;align=center;verticalAlign=middle;whiteSpace=wrap;rounded=0;" vertex="1" parent="1">
          <mxGeometry x="55" y="110" width="60" height="30" as="geometry" />
        </mxCell>
        <mxCell id="vkkQOnORTPZ0EyA8R30g-12" value="odin-minotor" style="rounded=1;whiteSpace=wrap;html=1;" vertex="1" parent="1">
          <mxGeometry x="240" y="272.5" width="70" height="30" as="geometry" />
        </mxCell>
        <mxCell id="vkkQOnORTPZ0EyA8R30g-13" value="irams" style="rounded=1;whiteSpace=wrap;html=1;" vertex="1" parent="1">
          <mxGeometry x="240" y="330" width="70" height="30" as="geometry" />
        </mxCell>
        <mxCell id="vkkQOnORTPZ0EyA8R30g-22" value="" style="rounded=0;orthogonalLoop=1;jettySize=auto;html=1;shape=flexArrow;endWidth=9.285714285714286;endSize=3.714285714285715;" edge="1" parent="1" source="vkkQOnORTPZ0EyA8R30g-18" target="vkkQOnORTPZ0EyA8R30g-12">
          <mxGeometry relative="1" as="geometry" />
        </mxCell>
        <mxCell id="vkkQOnORTPZ0EyA8R30g-18" value="cAdcisor" style="rounded=0;whiteSpace=wrap;html=1;" vertex="1" parent="1">
          <mxGeometry x="140" y="270" width="65" height="35" as="geometry" />
        </mxCell>
        <mxCell id="vkkQOnORTPZ0EyA8R30g-25" value="" style="rounded=0;orthogonalLoop=1;jettySize=auto;html=1;" edge="1" parent="1" source="vkkQOnORTPZ0EyA8R30g-20" target="vkkQOnORTPZ0EyA8R30g-18">
          <mxGeometry relative="1" as="geometry" />
        </mxCell>
        <mxCell id="vkkQOnORTPZ0EyA8R30g-20" value="cgroup" style="shape=note;whiteSpace=wrap;html=1;backgroundOutline=1;darkOpacity=0.05;size=11;" vertex="1" parent="1">
          <mxGeometry x="45" y="300" width="65" height="30" as="geometry" />
        </mxCell>
      </root>
    </mxGraphModel>
  </diagram>
</mxfile>
